<svg width="202" height="216" xmlns="http://www.w3.org/2000/svg" xmlns:xlink="http://www.w3.org/1999/xlink" xml:space="preserve" overflow="hidden"><g transform="translate(-1892 -210)"><g><path d="M2025 323C2013.95 323 2013.95 323 2013.95 323 2013.95 325.833 2011.19 328.667 2007.05 328.667 2004.29 328.667 2001.52 325.833 2001.52 323 1990.48 323 1990.48 323 1990.48 323 1990.48 325.833 1987.71 328.667 1983.57 328.667 1980.81 328.667 1978.05 325.833 1978.05 323 1967 323 1967 323 1967 323 1967 332.917 1975.29 340 1983.57 340 1989.1 340 1993.24 338.583 1996 335.75 1998.76 338.583 2002.9 340 2007.05 340 2016.71 340 2025 332.917 2025 323Z" fill="#5DC99F" fill-rule="evenodd" fill-opacity="1"/><path d="M1905.32 421.612C1919.2 407.73 1937.23 396.625 1956.66 389.684 1959.43 393.849 1963.59 398.013 1967.75 402.178 1969.14 402.178 1970.53 403.566 1971.92 404.954 1971.92 423 1971.92 423 1971.92 423 1983.01 423 1983.01 423 1983.01 423 1983.01 410.507 1983.01 410.507 1983.01 410.507 1987.18 411.895 1991.34 411.895 1995.5 411.895 1999.66 411.895 2003.82 411.895 2007.99 410.507 2007.99 423 2007.99 423 2007.99 423 2019.08 423 2019.08 423 2019.08 423 2019.08 404.954 2019.08 404.954 2019.08 404.954 2020.47 403.566 2021.86 402.178 2021.86 402.178 2026.02 398.013 2030.18 393.849 2034.35 389.684 2053.77 396.625 2071.8 406.342 2085.68 421.612 2094 413.283 2094 413.283 2094 413.283 2078.74 399.401 2062.09 388.296 2042.67 381.355 2062.09 357.757 2077.35 325.829 2077.35 295.29 2077.35 284.184 2077.35 284.184 2077.35 284.184 2077.35 243.928 2041.28 212 1995.5 212 1949.72 212 1913.65 243.928 1913.65 284.184 1913.65 295.29 1913.65 295.29 1913.65 295.29 1913.65 298.066 1913.65 300.842 1913.65 303.619 1913.65 303.619 1913.65 303.619 1913.65 303.619 1913.65 303.619 1913.65 303.619 1913.65 303.619 1916.42 332.77 1930.3 360.533 1948.33 381.355 1928.91 388.296 1912.26 399.401 1897 413.283L1905.32 421.612ZM1924.75 284.184C1924.75 250.869 1956.66 223.105 1995.5 223.105 2034.35 223.105 2066.25 250.869 2066.25 284.184 2066.25 295.29 2066.25 295.29 2066.25 295.29 2066.25 295.29 2066.25 295.29 2066.25 295.29 2052.38 285.572 2026.02 278.632 1994.11 278.632 1964.98 278.632 1938.62 284.184 1924.75 292.513L1924.75 284.184ZM1989.95 350.816C1989.95 371.638 1989.95 371.638 1989.95 371.638 1987.18 370.25 1983.01 366.086 1981.63 364.698 1980.24 363.309 1980.24 363.309 1980.24 363.309 1964.98 349.428 1949.72 320.276 1946.94 295.29 1959.43 292.513 1976.08 289.737 1994.11 289.737 2012.15 289.737 2027.41 292.513 2039.89 295.29 2037.12 320.276 2021.86 349.428 2007.99 363.309 2006.6 364.698 2006.6 364.698 2006.6 364.698 2005.21 366.086 2002.44 367.474 2001.05 368.862 2001.05 350.816 2001.05 350.816 2001.05 350.816L1989.95 350.816ZM1994.11 373.026C1994.11 373.026 1994.11 373.026 1994.11 373.026 1994.11 373.026 1994.11 373.026 1994.11 373.026ZM1924.75 306.395C1927.52 303.619 1931.68 302.23 1937.23 299.454 1940.01 325.829 1956.66 356.369 1971.92 371.638 1973.3 373.026 1973.3 373.026 1973.3 373.026 1978.85 377.191 1985.79 384.132 1994.11 384.132 2002.44 384.132 2009.37 377.191 2013.54 373.026 2014.92 371.638 2014.92 371.638 2014.92 371.638 2030.18 356.369 2046.83 325.829 2050.99 299.454 2057.93 302.23 2062.09 306.395 2064.87 309.171 2064.87 309.171 2064.87 309.171 2064.87 309.171 2060.7 342.487 2037.12 374.415 2014.92 393.849 2010.76 398.013 2002.44 400.79 1995.5 400.79 1987.18 400.79 1980.24 398.013 1976.08 393.849 1952.49 374.415 1930.3 341.099 1924.75 306.395Z" fill="#07281C" fill-rule="evenodd" fill-opacity="1"/></g></g></svg>